<svg xmlns="http://www.w3.org/2000/svg" xmlns:svg="http://www.w3.org/2000/svg" id="svg2" width="161.632" height="161.632" version="1.0"><metadata id="metadata7"/><g id="layer1" transform="translate(-39.184,-31.546183)"><path style="opacity:1;fill:#2f7eed;fill-opacity:1;fill-rule:evenodd;stroke:#646464;stroke-width:1.63199997;stroke-linecap:round;stroke-linejoin:round;stroke-miterlimit:4;stroke-dasharray:none;stroke-dashoffset:0;stroke-opacity:1" id="path2385" d="M 200,112.36218 A 80,80 0 1 1 40,112.36218 A 80,80 0 1 1 200,112.36218 z"/><path id="path3157" d="M 180,112.36218 A 60,80 0 1 1 60,112.36218 A 60,80 0 1 1 180,112.36218 z" style="opacity:1;fill:#fff;fill-opacity:1;fill-rule:evenodd;stroke:#646464;stroke-width:1.63199997;stroke-linecap:round;stroke-linejoin:round;stroke-miterlimit:4;stroke-dasharray:none;stroke-dashoffset:0;stroke-opacity:1"/><path style="opacity:1;fill:#2f7eed;fill-opacity:1;fill-rule:evenodd;stroke:#646464;stroke-width:1.63199997;stroke-linecap:round;stroke-linejoin:round;stroke-miterlimit:4;stroke-dasharray:none;stroke-dashoffset:0;stroke-opacity:1" id="path3159" d="M 160,112.36218 A 40,80 0 1 1 80,112.36218 A 40,80 0 1 1 160,112.36218 z"/><path id="path3161" d="M 140,112.36218 A 20,80 0 1 1 100,112.36218 A 20,80 0 1 1 140,112.36218 z" style="opacity:1;fill:#fff;fill-opacity:1;fill-rule:evenodd;stroke:#646464;stroke-width:1.63199997;stroke-linecap:round;stroke-linejoin:round;stroke-miterlimit:4;stroke-dasharray:none;stroke-dashoffset:0;stroke-opacity:1"/></g></svg>